<svg width="100" height="100" viewBox="0 0 100 100" xmlns="http://www.w3.org/2000/svg">
  <path d="M0 0h100v100H0z" fill="none"/>
  <path d="M10 0Q20 20 10 40Q0 60 10 80Q20 100 10 120" stroke="rgba(0,0,0,0.05)" stroke-width="5" fill="none"/>
  <path d="M30 0Q40 20 30 40Q20 60 30 80Q40 100 30 120" stroke="rgba(0,0,0,0.05)" stroke-width="8" fill="none"/>
  <path d="M50 0Q60 20 50 40Q40 60 50 80Q60 100 50 120" stroke="rgba(0,0,0,0.05)" stroke-width="4" fill="none"/>
  <path d="M70 0Q80 20 70 40Q60 60 70 80Q80 100 70 120" stroke="rgba(0,0,0,0.05)" stroke-width="6" fill="none"/>
  <path d="M90 0Q100 20 90 40Q80 60 90 80Q100 100 90 120" stroke="rgba(0,0,0,0.05)" stroke-width="5" fill="none"/>
</svg>
